<svg xmlns="http://www.w3.org/2000/svg" xmlns:xlink="http://www.w3.org/1999/xlink" viewBox="0 0 1524 512"><defs><style>.cls-1{fill:none;}.cls-2{fill:#fff;}.cls-3{clip-path:url(#clip-path);}.cls-4{fill:#36413e;}</style><clipPath id="clip-path"><rect class="cls-1" width="512" height="512"/></clipPath></defs><title>LogoLong</title><g id="Layer_2" data-name="Layer 2"><path class="cls-2" d="M566.67,382H526l-6.77,33.87H481.31l45.76-200.2h39l45.86,200.2H573.74Zm-33.14-40.11h26l-13-70.06Z"/><path class="cls-2" d="M712.74,264h-39.8V415.87H635.87V264H596V215.67H712.74Z"/><path class="cls-2" d="M815.78,264H776V415.87H738.91V264H699V215.67H815.78Z"/><path class="cls-2" d="M1003.78,332.44q0,39.22-18.84,63.73t-51.17,24.51q-18.69,0-32.58-5.79a124.74,124.74,0,0,1-26-14.71V336.54h4.24q12,16.94,26.92,26T935,371.66a53.31,53.31,0,0,0,9.29-1.07,24.3,24.3,0,0,0,9.4-3.57,26.64,26.64,0,0,0,7.32-8q2.88-4.81,2.88-14.26A25.26,25.26,0,0,0,947.41,320q-8.49-3.56-17.93-6.68a93.42,93.42,0,0,1-17.73-7.93q-19-10.87-27.33-29.5t-8.33-46.26q0-37.08,18.84-60.52t48.44-23.44a88.16,88.16,0,0,1,29.35,5.08,97.89,97.89,0,0,1,25.1,12.75v61.15h-4.14A82.53,82.53,0,0,0,971.4,203.1q-13.18-8.64-26.92-8.65a41,41,0,0,0-9.65,1.16,26.33,26.33,0,0,0-9.24,4.37,21.5,21.5,0,0,0-6.77,8.11A26.46,26.46,0,0,0,916,220.49q0,10.52,4.55,16.13t17.17,10.25q8.28,3,15.91,5.88A116,116,0,0,1,970,260.6a61.7,61.7,0,0,1,25.51,27.19Q1003.78,305,1003.78,332.44Z"/><path class="cls-2" d="M1086.21,382H1045.5l-6.77,33.87h-37.88l45.76-200.2h39l45.86,200.2h-38.19Zm-33.14-40.11h26l-13-70.06Z"/><path class="cls-2" d="M1245.21,342.78q0,35.66-14.9,56.42T1188.95,420q-26.57,0-41.32-20.77t-14.75-56.6V215.67h37V325.49q0,42.61,19.09,42.61,11.21,0,15.2-10t4-32.8V215.67h37.08Z"/><path class="cls-2" d="M1377.85,415.87H1342.8l-46.17-107.32V415.87H1263.7V215.67h36.57L1344.72,320V215.67h33.14Z"/><path class="cls-2" d="M1511.5,403q-5.76,5.71-20.91,11.32A83.61,83.61,0,0,1,1461.5,420q-31.22,0-49.85-28.52T1393,315.5q0-43.86,18.49-73.8t48.19-29.95a74.83,74.83,0,0,1,48,16.58v47.78h-3.84q-18.79-18-41.42-18-32,0-32,57,0,33,7.78,47.42T1462.81,377q11.21,0,18.29-5V345.63h-27.78V306.05h58.19Z"/></g><g id="Layer_1" data-name="Layer 1"><g class="cls-3"><path class="cls-4" d="M439.16,147.24H490.1A11.89,11.89,0,0,1,502,159.12v87.12a11.89,11.89,0,0,1-11.9,11.88H472.64v242A11.89,11.89,0,0,1,460.74,512H422.86V488.23h26v-242h-118V234.36H478.2V171H354.38c8.72-3.05,17.5-6,26.38-8.65C390,159.55,418.76,150.85,439.16,147.24ZM181.15,512H51.26a11.89,11.89,0,0,1-11.9-11.88v-242H21.9A11.89,11.89,0,0,1,10,246.24V159.12a11.89,11.89,0,0,1,11.9-11.88h56c9.3,4.31,18.57,7.88,26.85,10.83,13.22,4.73,26.61,8.89,40.08,12.81l.27.12H33.8v63.36H181.14v11.88h-118v242h118ZM77.54,271.2a5.95,5.95,0,0,1,0-11.89H181.23V271.2Zm253.23-11.89H434.45a5.95,5.95,0,0,1,0,11.89H330.77V259.31Z"/></g><g class="cls-3"><rect class="cls-2" x="304.17" y="412.17" width="99.83" height="99.83"/><path class="cls-2" d="M235.7,134.65c-2.37-44.54-17.39-81.14-59.58-98.86-21.53-9-37.78-11.15-33.21,14.72C150.88,95.52,198.43,117.57,235.7,134.65Zm40.61,0c37.26-17.07,84.82-39.13,92.79-84.14,4.57-25.86-11.68-23.76-33.21-14.72C293.69,53.51,278.68,90.1,276.3,134.65Zm-163.49.84C83.6,125,51.73,109.65,45.24,89.74a33.47,33.47,0,0,1,2.54-25.51c5.39-9.78,15.08-14.52,26-14.52a11.88,11.88,0,1,1,0,23.76c-9.74,0-4.89,13.58,1.09,17.59,23.41,15.72,53.58,25.43,80.67,33-22.65-18.11-37.94-38.42-43.21-68.12C103,3.63,145-10.59,188,7.44c33.48,14,55.54,38,68,70.64,12.47-32.69,34.51-56.59,68-70.64,43-18,85-3.81,75.68,48.49-4.33,24.4-16.9,45.45-35.38,61.58,45-13.63,89.24-25.41,112.68-15.22A11.85,11.85,0,1,1,467.49,124c-15.72-6.84-53.85,3.34-93.7,15.39-23.46,7.09-43.86,14.8-67,23.61V512H205.17V163C174.81,154.23,142.47,146.09,112.82,135.49Z"/></g></g></svg>