<svg id="Layer_1" data-name="Layer 1" xmlns="http://www.w3.org/2000/svg" xmlns:xlink="http://www.w3.org/1999/xlink" viewBox="0 0 512 512"><defs><style>.cls-1{fill:none;}.cls-2{clip-path:url(#clip-path);}.cls-3{fill:#36413e;}.cls-4{fill:#fff;}</style><clipPath id="clip-path"><rect class="cls-1" width="512" height="512"/></clipPath></defs><title>Logo</title><g class="cls-2"><path class="cls-3" d="M439.16,147.24H490.1A11.89,11.89,0,0,1,502,159.12v87.12a11.89,11.89,0,0,1-11.9,11.88H472.64v242A11.89,11.89,0,0,1,460.74,512H422.86V488.23h26v-242h-118V234.36H478.2V171H354.38c8.72-3.05,17.5-6,26.38-8.65C390,159.55,418.76,150.85,439.16,147.24ZM181.15,512H51.26a11.89,11.89,0,0,1-11.9-11.88v-242H21.9A11.89,11.89,0,0,1,10,246.24V159.12a11.89,11.89,0,0,1,11.9-11.88h56c9.3,4.31,18.57,7.88,26.85,10.83,13.22,4.73,26.61,8.89,40.08,12.81l.27.12H33.8v63.36H181.14v11.88h-118v242h118ZM77.54,271.2a5.95,5.95,0,0,1,0-11.89H181.23V271.2Zm253.23-11.89H434.45a5.95,5.95,0,0,1,0,11.89H330.77V259.31Z"/></g><g class="cls-2"><rect class="cls-4" x="305.17" y="412.17" width="99.83" height="99.83"/><path class="cls-4" d="M235.7,134.65c-2.37-44.54-17.39-81.14-59.58-98.86-21.53-9-37.78-11.15-33.21,14.72C150.88,95.52,198.43,117.57,235.7,134.65Zm40.61,0c37.26-17.07,84.82-39.13,92.79-84.14,4.57-25.86-11.68-23.76-33.21-14.72C293.69,53.51,278.68,90.1,276.3,134.65Zm-163.49.84C83.6,125,51.73,109.65,45.24,89.74a33.47,33.47,0,0,1,2.54-25.51c5.39-9.78,15.08-14.52,26-14.52a11.88,11.88,0,1,1,0,23.76c-9.74,0-4.89,13.58,1.09,17.59,23.41,15.72,53.58,25.43,80.67,33-22.65-18.11-37.94-38.42-43.21-68.12C103,3.63,145-10.59,188,7.44c33.48,14,55.54,38,68,70.64,12.47-32.69,34.51-56.59,68-70.64,43-18,85-3.81,75.68,48.49-4.33,24.4-16.9,45.45-35.38,61.58,45-13.63,89.24-25.41,112.68-15.22A11.85,11.85,0,1,1,467.49,124c-15.72-6.84-53.85,3.34-93.7,15.39-23.46,7.09-43.86,14.8-67,23.61V512H205.17V163C174.81,154.23,142.47,146.09,112.82,135.49Z"/></g></svg>