<svg id="Layer_1" data-name="Layer 1" xmlns="http://www.w3.org/2000/svg" xmlns:xlink="http://www.w3.org/1999/xlink" viewBox="0 0 512 512"><defs><style>.cls-1{fill:none;}.cls-2{clip-path:url(#clip-path);}.cls-3{fill:#36413e;}.cls-4{fill:#ff8336;}</style><clipPath id="clip-path"><rect class="cls-1" x="94" y="94" width="324" height="324"/></clipPath></defs><title>logoPlaceholder</title><g class="cls-2"><path class="cls-3" d="M371.9,187.17h32.24a7.52,7.52,0,0,1,7.53,7.52v55.13a7.52,7.52,0,0,1-7.53,7.52h-11V410.48a7.53,7.53,0,0,1-7.53,7.52h-24V403H378V249.82H303.37V242.3h93.24V202.21H318.25c5.52-1.93,11.07-3.77,16.69-5.47C340.82,195,359,189.46,371.9,187.17ZM208.63,418h-82.2a7.53,7.53,0,0,1-7.53-7.52V257.34h-11a7.53,7.53,0,0,1-7.53-7.52V194.69a7.53,7.53,0,0,1,7.53-7.52h35.42c5.88,2.72,11.75,5,17,6.86,8.36,3,16.84,5.62,25.37,8.11l.17.07H115.39v40.1h93.24v7.52H134V403h74.66ZM143.07,265.62a3.76,3.76,0,0,1,0-7.52h65.62v7.52Zm160.25-7.52h65.61a3.76,3.76,0,0,1,0,7.52H303.31V258.1Z"/></g><g class="cls-2"><rect class="cls-4" x="286.48" y="354.83" width="63.17" height="63.17"/><path class="cls-4" d="M243.15,179.21c-1.5-28.19-11-51.35-37.7-62.56-13.63-5.72-23.91-7.05-21,9.31C189.48,154.45,219.57,168.4,243.15,179.21Zm25.7,0c23.58-10.8,53.68-24.76,58.72-53.25,2.89-16.37-7.39-15-21-9.31C279.85,127.86,270.35,151,268.85,179.21Zm-103.46.53c-18.49-6.61-38.65-16.35-42.76-29a21.18,21.18,0,0,1,1.61-16.14c3.41-6.19,9.54-9.19,16.44-9.19a7.52,7.52,0,1,1,0,15c-6.16,0-3.09,8.59.69,11.13,14.82,9.95,33.91,16.09,51.05,20.88-14.34-11.46-24-24.31-27.34-43.11-5.87-33.1,20.68-42.1,47.89-30.69,21.19,8.88,35.15,24,43,44.7,7.89-20.68,21.84-35.81,43-44.7,27.21-11.41,53.76-2.41,47.89,30.69a66.85,66.85,0,0,1-22.39,39c28.45-8.63,56.47-16.08,71.31-9.63a7.5,7.5,0,1,1-6,13.74c-9.95-4.33-34.08,2.11-59.3,9.74-14.84,4.49-27.75,9.36-42.38,14.94V418H223.83V197.15C204.62,191.6,184.16,186.45,165.39,179.74Z"/></g></svg>